<svg width="1267" height="535" viewBox="0 0 1267 535" fill="none" xmlns="http://www.w3.org/2000/svg">
<path d="M0 185H148.125L155.625 213.75L160 226.25L166.875 241.875L175 256.25L182.5 268.125L189.375 276.875L196.25 285L205 294.375L213.75 301.875L224.375 310L233.125 316.25L242.5 322.5L257.5 330.625L274.375 338.75L293.75 346.25L311.875 351.875L336.875 358.125L346.25 360V534.375L335.625 535H180.625L171.875 534.375L171.25 394.375L170.625 360.625L118.75 360H0V185Z" fill="#B0CA51"/>
<path d="M345 0L346.875 0.625L342.5 10L333.125 35L324.375 60L317.5 81.875L311.875 105.625L308.125 127.5L306.25 143.75V172.5L308.75 191.875L312.5 207.5L316.25 218.125L321.875 230.625L327.5 240.625H325.625L318.75 235L313.125 229.375L307.5 222.5L300.625 213.75L295.625 205L288.75 191.875L283.125 174.375L280 158.75L278.125 142.5V125.625L279.375 111.875L282.5 93.75L285 83.125L286.25 80.625L285.625 78.75L280 81.875L269.375 88.125L258.75 93.125L243.125 98.75L220.625 103.75L208.125 106.25L205 131.25L204.375 141.875V158.75L205.625 173.125L209.375 190.625L213.75 203.75L218.75 215L226.875 228.125L233.75 236.25L240.625 243.75L248.125 250.625L258.75 258.125L268.125 263.75L280 269.375L293.125 274.375L308.75 279.375L323.75 283.125L343.125 286.25L366.25 288.75L375 289.375H421.25L440.625 288.125L481.25 283.75L565 272.5L601.875 268.75L624.375 267.5H663.125L685.625 269.375L711.875 273.125L735.625 278.125L751.25 282.5L773.125 290L790 296.875L808.125 305.625L824.375 314.375L836.875 321.875L850.625 330.625L861.25 338.125L874.375 348.125L885 356.875L893.75 363.125V363.75H890.625V362.5L887.5 361.875L877.5 356.875L863.125 350.625L840 342.5L818.125 336.25L795.625 331.25L768.125 326.875L734.375 323.75H675L636.25 326.25L598.75 330L546.875 336.25L507.5 341.25L476.25 344.375L445 346.875L430.625 347.5H401.875L383.125 346.25L353.75 342.5L331.25 338.125L310 332.5L287.5 325L271.875 318.125L256.25 310L244.375 302.5L232.5 294.375L223.75 286.875L218.75 282.5L210.625 275L206.25 270L198.75 261.25L190 248.75L184.375 239.375L179.375 230L171.875 211.875L166.875 195.625L163.125 176.25L161.25 160L160.625 151.25V130.625L161.875 111.25L164.375 92.5L169.375 65.625L171.25 56.875L203.75 54.375L224.375 51.875L238.75 49.375L257.5 45L280 37.5L295 31.25L306.875 25.625L320.625 17.5L331.25 10L342.5 1.875L345 0Z" fill="#018DC6"/>
<path d="M679.375 206.25H716.25L736.25 208.125L756.875 211.25L776.25 215.625L791.875 220L814.375 227.5L835.625 235L856.875 243.75L874.375 251.25L924.375 273.125L948.125 283.125L976.25 293.75L998.125 301.25L1020 307.5L1038.12 311.875L1060.62 316.25L1084.38 319.375L1100 320.625H1138.12L1161.88 318.75L1185 315.625L1210.62 310.625L1238.12 303.75L1256.25 298.125L1263.75 295.625L1266.25 296.25L1254.38 302.5L1245 308.125L1231.88 315.625L1215 324.375L1199.38 331.875L1179.38 340L1153.75 348.75L1135 353.75L1115 357.5L1093.75 360L1085 360.625H1066.25L1046.88 358.75L1021.25 354.375L996.25 348.125L969.375 339.375L948.75 331.25L926.875 321.875L901.875 310.625L877.5 299.375L857.5 290.625L828.125 278.125L803.125 268.75L782.5 261.875L756.875 255L734.375 250L711.25 246.25L694.375 244.375L674.375 243.125H637.5L616.25 244.375L583.75 248.125L561.875 251.875L536.25 257.5L508.125 264.375L506.25 263.75L515.625 259.375L529.375 251.875L546.25 243.125L566.875 233.75L586.25 226.25L609.375 218.75L626.25 214.375L643.75 210.625L664.375 207.5L679.375 206.25Z" fill="#707478"/>
<path d="M345 58.125L346.25 58.75L346.875 63.125V185H523.125L523.75 187.5L520 205L516.875 215L512.5 225L506.25 235L500.625 241.25L496.25 246.25L490 251.875L480.625 258.125L470.625 263.75L461.25 268.125L450 271.875L439.375 274.375L423.125 276.25H413.125L396.25 274.375L384.375 271.25L374.375 267.5L365.625 262.5L358.125 257.5L351.25 251.875L343.125 244.375L337.5 236.875L330.625 225.625L326.25 215.625L322.5 203.125L318.75 185.625L317.5 173.75V155L318.75 140L321.875 121.875L327.5 98.125L331.875 83.125L338.125 68.75L341.875 61.875L345 58.125Z" fill="#B0CA51"/>
<path d="M171.25 10.625H298.75L298.125 11.875L283.75 18.75L268.125 24.375L251.875 29.375L236.25 33.125L218.125 36.25L194.375 38.75L183.125 39.375H171.875L171.25 38.75V10.625Z" fill="#B1CB51"/>
<path d="M429.75 123.67C423.57 123.67 418.62 121.87 414.9 118.27C411.24 114.61 409.41 109.24 409.41 102.16C409.41 98.98 409.83 95.68 410.67 92.26C411.57 88.84 413.04 85.45 415.08 82.09C413.94 83.11 412.86 83.62 411.84 83.62C410.1 83.62 409.23 82.24 409.23 79.48C409.23 77.5 409.65 75.91 410.49 74.71C411.33 73.51 412.14 72.55 412.92 71.83C414.24 70.69 415.92 69.55 417.96 68.41C420 67.21 422.4 66.22 425.16 65.44C427.92 64.66 431.01 64.27 434.43 64.27C442.47 64.27 448.5 66.55 452.52 71.11C456.6 75.61 458.64 81.88 458.64 89.92C458.64 94.66 457.95 99.07 456.57 103.15C455.19 107.23 453.21 110.8 450.63 113.86C448.11 116.92 445.08 119.32 441.54 121.06C438 122.8 434.07 123.67 429.75 123.67ZM432.9 113.59C435.9 113.59 438.84 112.9 441.72 111.52C444.66 110.14 447.06 107.95 448.92 104.95C450.84 101.89 451.8 97.93 451.8 93.07C451.8 88.51 450.93 84.88 449.19 82.18C447.45 79.42 445.23 77.44 442.53 76.24C439.89 74.98 437.1 74.35 434.16 74.35C431.94 74.35 429.93 74.65 428.13 75.25C426.39 75.79 424.83 76.39 423.45 77.05C421.89 79.45 420.42 82.39 419.04 85.87C417.66 89.29 416.97 92.92 416.97 96.76C416.97 100.6 417.72 103.78 419.22 106.3C420.72 108.76 422.67 110.59 425.07 111.79C427.53 112.99 430.14 113.59 432.9 113.59ZM488.857 123.67C482.557 123.67 477.847 122.02 474.727 118.72C471.607 115.36 470.047 110.11 470.047 102.97C470.047 101.77 470.077 100.51 470.137 99.19C470.257 97.87 470.377 96.58 470.497 95.32C470.617 94.12 470.707 92.92 470.767 91.72C470.827 90.52 470.857 89.44 470.857 88.48C470.857 84.88 470.707 81.76 470.407 79.12C470.107 76.48 469.207 73.96 467.707 71.56C467.227 70.78 466.987 70.15 466.987 69.67C466.987 68.89 467.407 68.14 468.247 67.42C469.147 66.64 470.197 65.98 471.397 65.44C472.597 64.9 473.737 64.63 474.817 64.63C476.257 64.63 477.277 65.11 477.877 66.07C478.537 67.03 478.957 68.23 479.137 69.67C479.317 71.05 479.407 72.46 479.407 73.9C479.407 75.4 479.317 77.05 479.137 78.85C479.017 80.65 478.807 82.6 478.507 84.7C478.267 86.98 478.027 89.38 477.787 91.9C477.607 94.36 477.517 96.85 477.517 99.37C477.517 102.85 478.117 105.64 479.317 107.74C480.577 109.78 482.257 111.28 484.357 112.24C486.517 113.14 488.917 113.59 491.557 113.59C496.177 113.59 499.657 112.42 501.997 110.08C504.337 107.68 505.957 104.56 506.857 100.72C507.277 98.98 507.607 97 507.847 94.78C508.087 92.5 508.207 90.19 508.207 87.85C508.207 84.91 507.997 82.09 507.577 79.39C507.217 76.69 506.467 74.32 505.327 72.28C505.087 71.8 504.877 71.38 504.697 71.02C504.517 70.66 504.427 70.27 504.427 69.85C504.427 69.01 504.787 68.2 505.507 67.42C506.227 66.58 507.127 65.92 508.207 65.44C509.287 64.9 510.397 64.63 511.537 64.63C513.457 64.63 514.747 65.44 515.407 67.06C516.067 68.68 516.397 70.57 516.397 72.73C516.397 74.05 516.277 75.97 516.037 78.49C515.857 81.01 515.587 83.71 515.227 86.59C514.867 89.47 514.507 92.2 514.147 94.78C513.787 97.3 513.457 99.25 513.157 100.63C511.657 107.77 509.017 113.41 505.237 117.55C501.457 121.63 495.997 123.67 488.857 123.67ZM526.096 123.4C524.956 123.4 524.176 123.07 523.756 122.41C523.336 121.75 523.126 121.03 523.126 120.25C523.126 116.53 523.486 112.27 524.206 107.47C524.986 102.67 525.916 97.9 526.996 93.16C527.956 89.14 529.006 85.39 530.146 81.91C531.346 78.43 532.396 75.58 533.296 73.36C534.616 70.24 536.116 67.87 537.796 66.25C539.536 64.57 541.546 63.73 543.826 63.73C545.506 63.73 547.006 64.3 548.326 65.44C549.646 66.52 550.426 68.5 550.666 71.38C551.026 74.86 551.446 78.37 551.926 81.91C552.406 85.45 552.946 88.69 553.546 91.63C554.146 94.51 554.776 96.73 555.436 98.29C555.976 99.67 556.756 100.36 557.776 100.36C558.916 100.36 559.906 99.64 560.746 98.2C561.526 96.88 562.366 95.08 563.266 92.8C564.166 90.52 565.036 88.12 565.876 85.6C566.776 83.02 567.556 80.68 568.216 78.58C568.996 76.3 569.866 74.02 570.826 71.74C571.846 69.4 573.136 67.48 574.696 65.98C576.256 64.42 578.206 63.64 580.546 63.64C582.706 63.64 584.236 64.39 585.136 65.89C586.096 67.33 586.576 69.64 586.576 72.82C586.576 75.28 586.486 77.86 586.306 80.56C586.246 82.12 586.156 83.74 586.036 85.42C585.976 87.04 585.946 88.72 585.946 90.46C585.946 93.16 586.066 96.01 586.306 99.01C586.606 102.01 587.146 104.83 587.926 107.47C588.766 110.11 589.996 112.33 591.616 114.13C592.096 114.55 592.516 115.03 592.876 115.57C593.296 116.11 593.506 116.71 593.506 117.37C593.506 118.87 592.696 120.25 591.076 121.51C589.516 122.71 587.716 123.31 585.676 123.31C583.816 123.31 582.436 122.71 581.536 121.51C580.636 120.31 579.916 118.69 579.376 116.65C578.776 114.13 578.356 111.43 578.116 108.55C577.876 105.67 577.756 102.88 577.756 100.18C577.756 95.86 577.906 91.9 578.206 88.3C578.566 84.64 578.746 81.94 578.746 80.2C578.746 79.24 578.656 78.55 578.476 78.13C578.296 77.65 577.846 77.41 577.126 77.41C576.286 77.41 575.566 77.8 574.966 78.58C574.426 79.3 573.976 80.32 573.616 81.64C572.836 84.16 571.966 86.86 571.006 89.74C570.046 92.62 569.026 95.44 567.946 98.2C566.926 100.96 565.816 103.42 564.616 105.58C563.236 108.1 561.736 109.81 560.116 110.71C558.556 111.55 556.966 111.97 555.346 111.97C552.826 111.97 550.906 111.19 549.586 109.63C548.326 108.01 547.396 106.24 546.796 104.32C546.016 101.74 545.296 98.38 544.636 94.24C543.976 90.04 543.496 85.33 543.196 80.11C543.076 77.89 542.356 76.78 541.036 76.78C539.596 76.78 538.456 77.86 537.616 80.02C536.896 82.18 536.206 84.73 535.546 87.67C534.886 90.55 534.346 93.58 533.926 96.76C533.566 99.88 533.386 102.97 533.386 106.03C533.386 108.61 533.476 110.86 533.656 112.78C533.896 114.7 534.016 116.5 534.016 118.18C534.016 119.38 533.536 120.37 532.576 121.15C531.676 121.93 530.596 122.5 529.336 122.86C528.076 123.22 526.996 123.4 526.096 123.4ZM646.152 123.67C640.452 123.67 636.222 122.77 633.462 120.97C630.762 119.11 629.412 115.66 629.412 110.62C629.412 109.6 629.472 108.37 629.592 106.93C629.772 105.49 630.012 103.75 630.312 101.71C630.792 98.77 631.152 96.16 631.392 93.88C631.632 91.54 631.752 88.99 631.752 86.23C631.752 84.43 631.692 82.69 631.572 81.01C631.512 79.33 631.362 77.74 631.122 76.24C630.222 76.42 629.622 76.51 629.322 76.51C628.842 76.51 628.512 76.42 628.332 76.24C628.152 76 628.062 75.58 628.062 74.98C628.062 73.72 628.212 72.49 628.512 71.29C628.812 70.03 629.232 69.01 629.772 68.23C630.792 66.79 632.352 65.95 634.452 65.71C636.072 65.53 638.052 65.35 640.392 65.17C642.792 64.99 645.222 64.87 647.682 64.81C650.202 64.69 652.452 64.63 654.432 64.63C659.952 64.63 663.222 64.75 664.242 64.99C665.802 65.23 666.582 66.07 666.582 67.51C666.582 69.31 665.952 70.96 664.692 72.46C664.032 73.36 663.372 74.02 662.712 74.44C662.052 74.8 661.122 74.95 659.922 74.89C657.282 74.71 654.972 74.59 652.992 74.53C651.012 74.47 649.632 74.44 648.852 74.44C647.472 74.44 646.032 74.47 644.532 74.53C643.092 74.59 641.622 74.68 640.122 74.8C640.122 76.9 640.032 79.15 639.852 81.55C639.672 83.95 639.432 86.47 639.132 89.11C641.892 88.93 645.012 88.81 648.492 88.75C651.972 88.63 655.062 88.57 657.762 88.57C658.962 88.57 659.772 88.69 660.192 88.93C660.672 89.17 660.912 89.8 660.912 90.82C660.912 91.78 660.642 92.86 660.102 94.06C659.622 95.2 658.962 96.19 658.122 97.03C657.762 97.39 657.372 97.69 656.952 97.93C656.532 98.11 655.962 98.17 655.242 98.11C652.662 97.99 649.722 97.9 646.422 97.84C643.182 97.78 640.332 97.78 637.872 97.84C637.632 99.22 637.452 100.48 637.332 101.62C637.212 102.76 637.152 103.78 637.152 104.68C637.152 107.98 637.992 110.29 639.672 111.61C641.352 112.93 644.112 113.59 647.952 113.59C650.292 113.59 652.542 113.38 654.702 112.96C656.922 112.54 659.172 111.76 661.452 110.62C662.292 110.14 662.922 109.9 663.342 109.9C664.002 109.9 664.632 110.38 665.232 111.34C665.892 112.24 666.222 113.23 666.222 114.31C666.222 115.63 665.712 116.89 664.692 118.09C663.732 119.23 662.442 120.22 660.822 121.06C658.962 121.9 656.742 122.53 654.162 122.95C651.582 123.43 648.912 123.67 646.152 123.67ZM681.512 123.4C679.772 123.4 678.482 122.92 677.642 121.96C676.802 121 676.382 119.32 676.382 116.92C676.382 115.78 676.472 114.31 676.652 112.51C676.832 110.71 677.042 108.76 677.282 106.66C677.642 104.08 677.942 101.38 678.182 98.56C678.482 95.74 678.632 93.04 678.632 90.46C678.632 86.8 678.452 83.02 678.092 79.12C677.792 75.16 676.892 71.71 675.392 68.77C674.852 67.57 674.582 66.7 674.582 66.16C674.582 65.38 674.912 64.63 675.572 63.91C676.292 63.19 677.162 62.59 678.182 62.11C679.202 61.57 680.192 61.3 681.152 61.3C682.712 61.3 683.882 62.02 684.662 63.46C685.442 64.84 685.952 66.76 686.192 69.22C686.432 71.62 686.552 74.38 686.552 77.5C686.552 82.24 686.342 86.35 685.922 89.83C685.562 93.31 685.202 96.37 684.842 99.01C684.602 100.75 684.362 102.4 684.122 103.96C683.942 105.52 683.852 106.93 683.852 108.19C683.852 110.29 684.182 111.82 684.842 112.78C685.562 113.68 686.702 114.58 688.262 115.48C688.682 115.72 688.982 115.96 689.162 116.2C689.402 116.38 689.522 116.68 689.522 117.1C689.522 117.58 689.282 118.33 688.802 119.35C688.322 120.37 687.482 121.3 686.282 122.14C685.142 122.98 683.552 123.4 681.512 123.4ZM728.048 123.49C726.428 123.49 725.408 123.13 724.988 122.41C724.568 121.69 724.478 120.67 724.718 119.35C725.618 114.91 726.398 110.08 727.058 104.86C727.718 99.64 728.048 94.39 728.048 89.11C728.048 85.51 727.898 82.3 727.598 79.48C727.358 76.66 726.488 74.02 724.988 71.56C724.748 71.2 724.538 70.87 724.358 70.57C724.238 70.21 724.178 69.91 724.178 69.67C724.178 68.89 724.598 68.14 725.438 67.42C726.338 66.64 727.388 65.98 728.588 65.44C729.788 64.9 730.928 64.63 732.008 64.63C733.448 64.63 734.468 65.11 735.068 66.07C735.728 67.03 736.118 68.23 736.238 69.67C736.358 71.05 736.418 72.46 736.418 73.9C736.418 75.34 736.328 76.96 736.148 78.76C736.028 80.5 735.878 82.42 735.698 84.52C735.398 87.28 735.098 90.31 734.798 93.61C734.498 96.85 734.348 100.24 734.348 103.78C734.348 107.8 734.498 111.1 734.798 113.68C735.098 116.2 735.308 117.85 735.428 118.63C735.608 119.65 735.308 120.52 734.528 121.24C733.748 121.96 732.758 122.5 731.558 122.86C730.358 123.28 729.188 123.49 728.048 123.49ZM762.338 123.31C759.938 123.31 757.628 122.71 755.408 121.51C753.248 120.31 751.208 118.75 749.288 116.83C747.368 114.91 745.628 112.81 744.068 110.53C742.568 108.25 741.248 106 740.108 103.78C739.028 101.56 738.218 99.61 737.678 97.93C737.138 96.31 736.868 94.9 736.868 93.7C736.868 92.38 737.348 90.79 738.308 88.93C739.088 87.49 740.228 85.75 741.728 83.71C743.228 81.67 744.938 79.54 746.858 77.32C748.838 75.1 750.878 73.03 752.978 71.11C755.138 69.19 757.298 67.63 759.458 66.43C761.618 65.23 763.628 64.63 765.488 64.63C767.168 64.63 768.368 65.14 769.088 66.16C769.868 67.12 770.258 68.23 770.258 69.49C770.258 70.51 770.048 71.59 769.628 72.73C769.208 73.87 768.638 74.83 767.918 75.61C767.198 76.39 766.358 76.78 765.398 76.78C764.798 76.78 764.228 76.72 763.688 76.6C763.208 76.42 762.578 76.33 761.798 76.33C761.018 76.33 760.088 76.48 759.008 76.78C757.988 77.08 756.848 77.65 755.588 78.49C754.568 79.21 753.308 80.29 751.808 81.73C750.308 83.11 748.778 84.7 747.218 86.5C745.658 88.3 744.218 90.22 742.898 92.26C743.738 94.3 744.878 96.37 746.318 98.47C747.758 100.51 749.258 102.43 750.818 104.23C753.638 107.47 756.338 109.84 758.918 111.34C761.558 112.84 764.768 113.59 768.548 113.59C769.328 113.59 769.838 113.77 770.078 114.13C770.378 114.49 770.528 115.06 770.528 115.84C770.528 117.58 769.868 119.26 768.548 120.88C767.288 122.5 765.218 123.31 762.338 123.31ZM790.097 123.67C785.957 123.67 782.627 122.56 780.107 120.34C777.647 118.06 776.417 114.73 776.417 110.35C776.417 108.31 776.687 106.33 777.227 104.41C777.827 102.49 778.607 100.69 779.567 99.01C778.607 99.61 777.887 99.91 777.407 99.91C776.687 99.91 776.177 99.52 775.877 98.74C775.637 97.9 775.517 97.09 775.517 96.31C775.517 94.93 775.787 93.85 776.327 93.07C776.927 92.23 777.497 91.6 778.037 91.18C779.297 90.1 781.277 88.93 783.977 87.67C786.677 86.35 789.917 85.69 793.697 85.69C798.857 85.69 802.847 87.13 805.667 90.01C808.547 92.89 809.987 96.91 809.987 102.07C809.987 106.09 809.147 109.75 807.467 113.05C805.787 116.29 803.447 118.87 800.447 120.79C797.507 122.71 794.057 123.67 790.097 123.67ZM792.887 114.49C795.887 114.49 798.407 113.56 800.447 111.7C802.547 109.78 803.597 107.26 803.597 104.14C803.597 100.9 802.547 98.59 800.447 97.21C798.347 95.83 795.917 95.14 793.157 95.14C791.897 95.14 790.757 95.26 789.737 95.5C788.717 95.74 787.757 96.04 786.857 96.4C786.017 97.6 785.267 98.95 784.607 100.45C783.947 101.95 783.617 103.6 783.617 105.4C783.617 108.4 784.517 110.68 786.317 112.24C788.117 113.74 790.307 114.49 792.887 114.49ZM824.122 123.49C823.162 123.49 822.382 123.31 821.782 122.95C821.242 122.65 821.062 122.11 821.242 121.33C821.902 118.75 822.442 116.14 822.862 113.5C823.342 110.8 823.582 108.22 823.582 105.76C823.582 102.58 823.372 100.27 822.952 98.83C822.592 97.33 822.082 96.31 821.422 95.77C820.762 95.17 819.952 94.72 818.992 94.42C818.572 94.24 818.182 94 817.822 93.7C817.522 93.4 817.372 92.98 817.372 92.44C817.372 91.6 817.702 90.67 818.362 89.65C819.022 88.63 819.952 87.76 821.152 87.04C822.352 86.26 823.732 85.87 825.292 85.87C827.332 85.87 828.742 86.59 829.522 88.03C830.362 89.41 830.782 91.24 830.782 93.52C831.862 91.12 833.182 89.23 834.742 87.85C836.362 86.41 838.372 85.69 840.772 85.69C842.392 85.69 843.742 86.05 844.822 86.77C845.902 87.49 846.442 88.66 846.442 90.28C846.442 91.9 845.902 93.43 844.822 94.87C843.802 96.25 842.752 96.94 841.672 96.94C841.492 96.94 841.282 96.91 841.042 96.85C840.802 96.79 840.592 96.64 840.412 96.4C839.632 95.44 838.672 94.96 837.532 94.96C835.792 94.96 834.262 96.1 832.942 98.38C831.622 100.66 830.902 103.81 830.782 107.83C830.842 109.33 830.872 110.86 830.872 112.42C830.932 113.98 830.962 115.12 830.962 115.84C830.962 118.06 830.332 119.89 829.072 121.33C827.872 122.77 826.222 123.49 824.122 123.49ZM860.598 123.67C856.998 123.67 854.088 122.56 851.868 120.34C849.708 118.06 848.628 114.82 848.628 110.62C848.628 107.62 849.198 104.65 850.338 101.71C851.538 98.71 853.248 96.01 855.468 93.61C857.688 91.21 860.358 89.29 863.478 87.85C866.598 86.41 870.108 85.69 874.008 85.69C877.608 85.69 880.668 86.32 883.188 87.58C885.768 88.78 887.058 90.43 887.058 92.53C887.058 93.07 886.998 93.79 886.878 94.69C886.758 95.53 886.608 96.22 886.428 96.76C886.248 97.24 885.978 97.69 885.618 98.11C885.318 98.47 884.898 98.65 884.358 98.65C884.118 98.65 883.668 98.56 883.008 98.38C882.768 99.64 882.588 100.87 882.468 102.07C882.348 103.27 882.288 104.47 882.288 105.67C882.288 107.95 882.618 109.99 883.278 111.79C883.998 113.53 885.378 114.61 887.418 115.03C887.958 115.15 888.378 115.33 888.678 115.57C889.038 115.81 889.218 116.32 889.218 117.1C889.218 117.76 889.038 118.6 888.678 119.62C888.378 120.64 887.748 121.57 886.788 122.41C885.888 123.19 884.568 123.58 882.828 123.58C880.488 123.58 878.688 122.74 877.428 121.06C876.168 119.32 875.538 116.86 875.538 113.68C873.918 116.62 871.848 119.02 869.328 120.88C866.868 122.74 863.958 123.67 860.598 123.67ZM863.478 114.31C865.878 114.31 867.978 113.56 869.778 112.06C871.638 110.56 873.078 108.67 874.098 106.39C874.758 104.95 875.268 103.39 875.628 101.71C875.988 99.97 876.228 98.26 876.348 96.58C875.328 96.1 874.158 95.71 872.838 95.41C871.518 95.11 870.138 94.96 868.698 94.96C865.038 94.96 862.008 96.04 859.608 98.2C857.268 100.36 856.098 103.06 856.098 106.3C856.098 108.7 856.758 110.65 858.078 112.15C859.398 113.59 861.198 114.31 863.478 114.31Z" fill="#018DC6"/>
<path d="M429.75 472.67C423.57 472.67 418.62 470.87 414.9 467.27C411.24 463.61 409.41 458.24 409.41 451.16C409.41 447.98 409.83 444.68 410.67 441.26C411.57 437.84 413.04 434.45 415.08 431.09C413.94 432.11 412.86 432.62 411.84 432.62C410.1 432.62 409.23 431.24 409.23 428.48C409.23 426.5 409.65 424.91 410.49 423.71C411.33 422.51 412.14 421.55 412.92 420.83C414.24 419.69 415.92 418.55 417.96 417.41C420 416.21 422.4 415.22 425.16 414.44C427.92 413.66 431.01 413.27 434.43 413.27C442.47 413.27 448.5 415.55 452.52 420.11C456.6 424.61 458.64 430.88 458.64 438.92C458.64 443.66 457.95 448.07 456.57 452.15C455.19 456.23 453.21 459.8 450.63 462.86C448.11 465.92 445.08 468.32 441.54 470.06C438 471.8 434.07 472.67 429.75 472.67ZM432.9 462.59C435.9 462.59 438.84 461.9 441.72 460.52C444.66 459.14 447.06 456.95 448.92 453.95C450.84 450.89 451.8 446.93 451.8 442.07C451.8 437.51 450.93 433.88 449.19 431.18C447.45 428.42 445.23 426.44 442.53 425.24C439.89 423.98 437.1 423.35 434.16 423.35C431.94 423.35 429.93 423.65 428.13 424.25C426.39 424.79 424.83 425.39 423.45 426.05C421.89 428.45 420.42 431.39 419.04 434.87C417.66 438.29 416.97 441.92 416.97 445.76C416.97 449.6 417.72 452.78 419.22 455.3C420.72 457.76 422.67 459.59 425.07 460.79C427.53 461.99 430.14 462.59 432.9 462.59ZM470.6 472.31C468.92 472.31 467.54 471.77 466.46 470.69C465.44 469.61 464.93 468.23 464.93 466.55C464.93 464.81 465.5 463.37 466.64 462.23C467.78 461.09 469.25 460.52 471.05 460.52C472.73 460.52 474.08 461.03 475.1 462.05C476.12 463.07 476.63 464.42 476.63 466.1C476.63 467.9 476.06 469.4 474.92 470.6C473.78 471.74 472.34 472.31 470.6 472.31Z" fill="#018DC6"/>
<path d="M505.619 472.67C499.919 472.67 495.689 471.77 492.929 469.97C490.229 468.11 488.879 464.66 488.879 459.62C488.879 458.6 488.939 457.37 489.059 455.93C489.239 454.49 489.479 452.75 489.779 450.71C490.259 447.77 490.619 445.16 490.859 442.88C491.099 440.54 491.219 437.99 491.219 435.23C491.219 433.43 491.159 431.69 491.039 430.01C490.979 428.33 490.829 426.74 490.589 425.24C489.689 425.42 489.089 425.51 488.789 425.51C488.309 425.51 487.979 425.42 487.799 425.24C487.619 425 487.529 424.58 487.529 423.98C487.529 422.72 487.679 421.49 487.979 420.29C488.279 419.03 488.699 418.01 489.239 417.23C490.259 415.79 491.819 414.95 493.919 414.71C495.539 414.53 497.519 414.35 499.859 414.17C502.259 413.99 504.689 413.87 507.149 413.81C509.669 413.69 511.919 413.63 513.899 413.63C519.419 413.63 522.689 413.75 523.709 413.99C525.269 414.23 526.049 415.07 526.049 416.51C526.049 418.31 525.419 419.96 524.159 421.46C523.499 422.36 522.839 423.02 522.179 423.44C521.519 423.8 520.589 423.95 519.389 423.89C516.749 423.71 514.439 423.59 512.459 423.53C510.479 423.47 509.099 423.44 508.319 423.44C506.939 423.44 505.499 423.47 503.999 423.53C502.559 423.59 501.089 423.68 499.589 423.8C499.589 425.9 499.499 428.15 499.319 430.55C499.139 432.95 498.899 435.47 498.599 438.11C501.359 437.93 504.479 437.81 507.959 437.75C511.439 437.63 514.529 437.57 517.229 437.57C518.429 437.57 519.239 437.69 519.659 437.93C520.139 438.17 520.379 438.8 520.379 439.82C520.379 440.78 520.109 441.86 519.569 443.06C519.089 444.2 518.429 445.19 517.589 446.03C517.229 446.39 516.839 446.69 516.419 446.93C515.999 447.11 515.429 447.17 514.709 447.11C512.129 446.99 509.189 446.9 505.889 446.84C502.649 446.78 499.799 446.78 497.339 446.84C497.099 448.22 496.919 449.48 496.799 450.62C496.679 451.76 496.619 452.78 496.619 453.68C496.619 456.98 497.459 459.29 499.139 460.61C500.819 461.93 503.579 462.59 507.419 462.59C509.759 462.59 512.009 462.38 514.169 461.96C516.389 461.54 518.639 460.76 520.919 459.62C521.759 459.14 522.389 458.9 522.809 458.9C523.469 458.9 524.099 459.38 524.699 460.34C525.359 461.24 525.689 462.23 525.689 463.31C525.689 464.63 525.179 465.89 524.159 467.09C523.199 468.23 521.909 469.22 520.289 470.06C518.429 470.9 516.209 471.53 513.629 471.95C511.049 472.43 508.379 472.67 505.619 472.67ZM541.788 472.31C540.108 472.31 538.728 471.77 537.648 470.69C536.628 469.61 536.118 468.23 536.118 466.55C536.118 464.81 536.688 463.37 537.828 462.23C538.968 461.09 540.438 460.52 542.238 460.52C543.918 460.52 545.268 461.03 546.288 462.05C547.308 463.07 547.818 464.42 547.818 466.1C547.818 467.9 547.248 469.4 546.108 470.6C544.968 471.74 543.528 472.31 541.788 472.31Z" fill="#B0CA51"/>
<path d="M561.776 472.4C560.636 472.4 559.856 472.07 559.436 471.41C559.016 470.75 558.806 470.03 558.806 469.25C558.806 465.53 559.166 461.27 559.886 456.47C560.666 451.67 561.596 446.9 562.676 442.16C563.636 438.14 564.686 434.39 565.826 430.91C567.026 427.43 568.076 424.58 568.976 422.36C570.296 419.24 571.796 416.87 573.476 415.25C575.216 413.57 577.226 412.73 579.506 412.73C581.186 412.73 582.686 413.3 584.006 414.44C585.326 415.52 586.106 417.5 586.346 420.38C586.706 423.86 587.126 427.37 587.606 430.91C588.086 434.45 588.626 437.69 589.226 440.63C589.826 443.51 590.456 445.73 591.116 447.29C591.656 448.67 592.436 449.36 593.456 449.36C594.596 449.36 595.586 448.64 596.426 447.2C597.206 445.88 598.046 444.08 598.946 441.8C599.846 439.52 600.716 437.12 601.556 434.6C602.456 432.02 603.236 429.68 603.896 427.58C604.676 425.3 605.546 423.02 606.506 420.74C607.526 418.4 608.816 416.48 610.376 414.98C611.936 413.42 613.886 412.64 616.226 412.64C618.386 412.64 619.916 413.39 620.816 414.89C621.776 416.33 622.256 418.64 622.256 421.82C622.256 424.28 622.166 426.86 621.986 429.56C621.926 431.12 621.836 432.74 621.716 434.42C621.656 436.04 621.626 437.72 621.626 439.46C621.626 442.16 621.746 445.01 621.986 448.01C622.286 451.01 622.826 453.83 623.606 456.47C624.446 459.11 625.676 461.33 627.296 463.13C627.776 463.55 628.196 464.03 628.556 464.57C628.976 465.11 629.186 465.71 629.186 466.37C629.186 467.87 628.376 469.25 626.756 470.51C625.196 471.71 623.396 472.31 621.356 472.31C619.496 472.31 618.116 471.71 617.216 470.51C616.316 469.31 615.596 467.69 615.056 465.65C614.456 463.13 614.036 460.43 613.796 457.55C613.556 454.67 613.436 451.88 613.436 449.18C613.436 444.86 613.586 440.9 613.886 437.3C614.246 433.64 614.426 430.94 614.426 429.2C614.426 428.24 614.336 427.55 614.156 427.13C613.976 426.65 613.526 426.41 612.806 426.41C611.966 426.41 611.246 426.8 610.646 427.58C610.106 428.3 609.656 429.32 609.296 430.64C608.516 433.16 607.646 435.86 606.686 438.74C605.726 441.62 604.706 444.44 603.626 447.2C602.606 449.96 601.496 452.42 600.296 454.58C598.916 457.1 597.416 458.81 595.796 459.71C594.236 460.55 592.646 460.97 591.026 460.97C588.506 460.97 586.586 460.19 585.266 458.63C584.006 457.01 583.076 455.24 582.476 453.32C581.696 450.74 580.976 447.38 580.316 443.24C579.656 439.04 579.176 434.33 578.876 429.11C578.756 426.89 578.036 425.78 576.716 425.78C575.276 425.78 574.136 426.86 573.296 429.02C572.576 431.18 571.886 433.73 571.226 436.67C570.566 439.55 570.026 442.58 569.606 445.76C569.246 448.88 569.066 451.97 569.066 455.03C569.066 457.61 569.156 459.86 569.336 461.78C569.576 463.7 569.696 465.5 569.696 467.18C569.696 468.38 569.216 469.37 568.256 470.15C567.356 470.93 566.276 471.5 565.016 471.86C563.756 472.22 562.676 472.4 561.776 472.4Z" fill="#707478"/>
<path d="M974.93 229.4C973.79 229.4 973.01 229.07 972.59 228.41C972.17 227.75 971.96 227.03 971.96 226.25C971.96 222.53 972.32 218.27 973.04 213.47C973.82 208.67 974.75 203.9 975.83 199.16C976.79 195.14 977.84 191.39 978.98 187.91C980.18 184.43 981.23 181.58 982.13 179.36C983.45 176.24 984.95 173.87 986.63 172.25C988.37 170.57 990.38 169.73 992.66 169.73C994.34 169.73 995.84 170.3 997.16 171.44C998.48 172.52 999.26 174.5 999.5 177.38C999.86 180.86 1000.28 184.37 1000.76 187.91C1001.24 191.45 1001.78 194.69 1002.38 197.63C1002.98 200.51 1003.61 202.73 1004.27 204.29C1004.81 205.67 1005.59 206.36 1006.61 206.36C1007.75 206.36 1008.74 205.64 1009.58 204.2C1010.36 202.88 1011.2 201.08 1012.1 198.8C1013 196.52 1013.87 194.12 1014.71 191.6C1015.61 189.02 1016.39 186.68 1017.05 184.58C1017.83 182.3 1018.7 180.02 1019.66 177.74C1020.68 175.4 1021.97 173.48 1023.53 171.98C1025.09 170.42 1027.04 169.64 1029.38 169.64C1031.54 169.64 1033.07 170.39 1033.97 171.89C1034.93 173.33 1035.41 175.64 1035.41 178.82C1035.41 181.28 1035.32 183.86 1035.14 186.56C1035.08 188.12 1034.99 189.74 1034.87 191.42C1034.81 193.04 1034.78 194.72 1034.78 196.46C1034.78 199.16 1034.9 202.01 1035.14 205.01C1035.44 208.01 1035.98 210.83 1036.76 213.47C1037.6 216.11 1038.83 218.33 1040.45 220.13C1040.93 220.55 1041.35 221.03 1041.71 221.57C1042.13 222.11 1042.34 222.71 1042.34 223.37C1042.34 224.87 1041.53 226.25 1039.91 227.51C1038.35 228.71 1036.55 229.31 1034.51 229.31C1032.65 229.31 1031.27 228.71 1030.37 227.51C1029.47 226.31 1028.75 224.69 1028.21 222.65C1027.61 220.13 1027.19 217.43 1026.95 214.55C1026.71 211.67 1026.59 208.88 1026.59 206.18C1026.59 201.86 1026.74 197.9 1027.04 194.3C1027.4 190.64 1027.58 187.94 1027.58 186.2C1027.58 185.24 1027.49 184.55 1027.31 184.13C1027.13 183.65 1026.68 183.41 1025.96 183.41C1025.12 183.41 1024.4 183.8 1023.8 184.58C1023.26 185.3 1022.81 186.32 1022.45 187.64C1021.67 190.16 1020.8 192.86 1019.84 195.74C1018.88 198.62 1017.86 201.44 1016.78 204.2C1015.76 206.96 1014.65 209.42 1013.45 211.58C1012.07 214.1 1010.57 215.81 1008.95 216.71C1007.39 217.55 1005.8 217.97 1004.18 217.97C1001.66 217.97 999.74 217.19 998.42 215.63C997.16 214.01 996.23 212.24 995.63 210.32C994.85 207.74 994.13 204.38 993.47 200.24C992.81 196.04 992.33 191.33 992.03 186.11C991.91 183.89 991.19 182.78 989.87 182.78C988.43 182.78 987.29 183.86 986.45 186.02C985.73 188.18 985.04 190.73 984.38 193.67C983.72 196.55 983.18 199.58 982.76 202.76C982.4 205.88 982.22 208.97 982.22 212.03C982.22 214.61 982.31 216.86 982.49 218.78C982.73 220.7 982.85 222.5 982.85 224.18C982.85 225.38 982.37 226.37 981.41 227.15C980.51 227.93 979.43 228.5 978.17 228.86C976.91 229.22 975.83 229.4 974.93 229.4ZM1064.34 229.67C1059.78 229.67 1056.21 228.38 1053.63 225.8C1051.11 223.16 1049.85 219.5 1049.85 214.82C1049.85 210.56 1050.78 206.69 1052.64 203.21C1054.5 199.73 1056.99 196.97 1060.11 194.93C1063.29 192.83 1066.77 191.78 1070.55 191.78C1074.15 191.78 1077.03 192.68 1079.19 194.48C1081.35 196.22 1082.43 198.56 1082.43 201.5C1082.43 203.84 1081.71 206 1080.27 207.98C1078.83 209.96 1076.91 211.55 1074.51 212.75C1072.11 213.89 1069.44 214.46 1066.5 214.46C1062.9 214.46 1059.96 213.65 1057.68 212.03C1057.74 214.79 1058.67 217.01 1060.47 218.69C1062.33 220.37 1064.7 221.21 1067.58 221.21C1069.32 221.21 1071.09 220.91 1072.89 220.31C1074.75 219.65 1076.34 218.78 1077.66 217.7C1078.5 216.98 1079.28 216.62 1080 216.62C1080.6 216.62 1081.08 216.83 1081.44 217.25C1081.86 217.61 1082.07 218.09 1082.07 218.69C1082.07 220.01 1080.93 221.75 1078.65 223.91C1074.63 227.75 1069.86 229.67 1064.34 229.67ZM1065.69 208.52C1067.85 208.52 1069.65 208.07 1071.09 207.17C1072.53 206.27 1073.25 205.13 1073.25 203.75C1073.25 202.61 1072.77 201.74 1071.81 201.14C1070.85 200.48 1069.53 200.15 1067.85 200.15C1065.63 200.15 1063.68 200.75 1062 201.95C1060.38 203.09 1059.21 204.71 1058.49 206.81C1059.33 207.35 1060.41 207.77 1061.73 208.07C1063.05 208.37 1064.37 208.52 1065.69 208.52ZM1102.37 229.67C1098.77 229.67 1095.92 228.47 1093.82 226.07C1091.78 223.67 1090.76 220.4 1090.76 216.26C1090.76 213.2 1091.24 210.2 1092.2 207.26C1093.22 204.32 1094.63 201.68 1096.43 199.34C1098.23 197 1100.33 195.14 1102.73 193.76C1105.13 192.38 1107.74 191.69 1110.56 191.69C1112.36 191.69 1113.95 191.96 1115.33 192.5C1116.77 193.04 1118.03 193.73 1119.11 194.57C1119.05 190.49 1118.84 186.83 1118.48 183.59C1118.12 180.35 1117.25 177.35 1115.87 174.59C1115.63 174.11 1115.42 173.69 1115.24 173.33C1115.12 172.91 1115.06 172.52 1115.06 172.16C1115.06 171.32 1115.39 170.54 1116.05 169.82C1116.77 169.1 1117.64 168.5 1118.66 168.02C1119.68 167.54 1120.64 167.3 1121.54 167.3C1123.16 167.3 1124.36 168.02 1125.14 169.46C1125.98 170.84 1126.52 172.76 1126.76 175.22C1127 177.62 1127.12 180.38 1127.12 183.5C1127.12 188.06 1126.91 192.17 1126.49 195.83C1126.07 199.49 1125.68 202.7 1125.32 205.46C1125.08 207.26 1124.87 208.82 1124.69 210.14C1124.51 211.46 1124.42 212.54 1124.42 213.38C1124.42 217.64 1126.25 220.16 1129.91 220.94C1130.87 221.12 1131.35 221.75 1131.35 222.83C1131.35 223.49 1131.14 224.33 1130.72 225.35C1130.36 226.37 1129.67 227.3 1128.65 228.14C1127.63 228.92 1126.16 229.31 1124.24 229.31C1121.66 229.31 1119.92 228.44 1119.02 226.7C1118.12 224.96 1117.67 222.32 1117.67 218.78C1115.99 221.84 1113.86 224.42 1111.28 226.52C1108.7 228.62 1105.73 229.67 1102.37 229.67ZM1105.16 220.04C1106.84 220.04 1108.52 219.5 1110.2 218.42C1111.88 217.34 1113.38 215.87 1114.7 214.01C1115.48 212.87 1116.17 211.58 1116.77 210.14C1117.43 208.64 1118.03 207.14 1118.57 205.64C1115.51 202.88 1112.12 201.5 1108.4 201.5C1105.16 201.5 1102.58 202.49 1100.66 204.47C1098.74 206.39 1097.78 208.79 1097.78 211.67C1097.78 214.13 1098.5 216.14 1099.94 217.7C1101.38 219.26 1103.12 220.04 1105.16 220.04ZM1146.54 183.77C1144.86 183.71 1143.51 183.2 1142.49 182.24C1141.47 181.28 1140.96 179.93 1140.96 178.19C1141.02 176.33 1141.65 174.83 1142.85 173.69C1144.05 172.49 1145.58 171.92 1147.44 171.98C1149.18 172.04 1150.53 172.55 1151.49 173.51C1152.51 174.47 1152.99 175.82 1152.93 177.56C1152.87 179.36 1152.27 180.86 1151.13 182.06C1149.99 183.2 1148.46 183.77 1146.54 183.77ZM1146.63 229.4C1144.83 229.4 1143.42 228.92 1142.4 227.96C1141.38 226.94 1140.87 225.23 1140.87 222.83C1140.87 221.45 1140.99 220.1 1141.23 218.78C1141.53 217.46 1141.86 216.17 1142.22 214.91C1142.64 213.59 1142.97 212.24 1143.21 210.86C1143.51 209.48 1143.66 208.01 1143.66 206.45C1143.66 205.37 1143.51 204.35 1143.21 203.39C1142.91 202.37 1142.25 201.62 1141.23 201.14C1140.45 200.72 1139.76 200.3 1139.16 199.88C1138.62 199.4 1138.35 198.8 1138.35 198.08C1138.35 197.24 1138.74 196.34 1139.52 195.38C1140.3 194.42 1141.32 193.61 1142.58 192.95C1143.9 192.23 1145.25 191.87 1146.63 191.87C1148.13 191.87 1149.21 192.26 1149.87 193.04C1150.59 193.82 1151.07 194.81 1151.31 196.01C1151.55 197.21 1151.67 198.44 1151.67 199.7C1151.67 201.62 1151.52 203.51 1151.22 205.37C1150.92 207.17 1150.62 208.85 1150.32 210.41C1150.08 211.55 1149.9 212.6 1149.78 213.56C1149.66 214.52 1149.6 215.42 1149.6 216.26C1149.6 217.76 1149.96 218.9 1150.68 219.68C1151.4 220.4 1152.42 221.09 1153.74 221.75C1154.28 222.05 1154.55 222.5 1154.55 223.1C1154.55 223.58 1154.31 224.33 1153.83 225.35C1153.35 226.37 1152.51 227.3 1151.31 228.14C1150.17 228.98 1148.61 229.4 1146.63 229.4ZM1176.15 229.67C1171.95 229.67 1168.65 228.41 1166.25 225.89C1163.91 223.31 1162.74 219.74 1162.74 215.18C1162.74 210.68 1163.7 206.66 1165.62 203.12C1167.54 199.58 1170.18 196.79 1173.54 194.75C1176.9 192.71 1180.71 191.69 1184.97 191.69C1187.85 191.69 1190.13 192.17 1191.81 193.13C1193.49 194.09 1194.33 195.41 1194.33 197.09C1194.33 198.59 1193.61 200.06 1192.17 201.5C1191.63 202.04 1190.91 202.55 1190.01 203.03C1189.17 203.45 1188.51 203.66 1188.03 203.66C1187.49 203.66 1187.04 203.45 1186.68 203.03C1186.08 202.37 1185.3 201.74 1184.34 201.14C1183.38 200.54 1182.03 200.24 1180.29 200.24C1177.35 200.24 1174.95 201.26 1173.09 203.3C1171.23 205.28 1170.3 207.89 1170.3 211.13C1170.3 214.07 1171.14 216.44 1172.82 218.24C1174.5 220.04 1176.72 220.94 1179.48 220.94C1180.92 220.94 1182.48 220.7 1184.16 220.22C1185.9 219.68 1187.43 218.93 1188.75 217.97C1189.41 217.37 1190.1 217.07 1190.82 217.07C1192.02 217.07 1192.62 217.82 1192.62 219.32C1192.62 221.3 1191.63 223.19 1189.65 224.99C1188.15 226.37 1186.14 227.51 1183.62 228.41C1181.16 229.25 1178.67 229.67 1176.15 229.67ZM1212.27 229.67C1208.67 229.67 1205.76 228.56 1203.54 226.34C1201.38 224.06 1200.3 220.82 1200.3 216.62C1200.3 213.62 1200.87 210.65 1202.01 207.71C1203.21 204.71 1204.92 202.01 1207.14 199.61C1209.36 197.21 1212.03 195.29 1215.15 193.85C1218.27 192.41 1221.78 191.69 1225.68 191.69C1229.28 191.69 1232.34 192.32 1234.86 193.58C1237.44 194.78 1238.73 196.43 1238.73 198.53C1238.73 199.07 1238.67 199.79 1238.55 200.69C1238.43 201.53 1238.28 202.22 1238.1 202.76C1237.92 203.24 1237.65 203.69 1237.29 204.11C1236.99 204.47 1236.57 204.65 1236.03 204.65C1235.79 204.65 1235.34 204.56 1234.68 204.38C1234.44 205.64 1234.26 206.87 1234.14 208.07C1234.02 209.27 1233.96 210.47 1233.96 211.67C1233.96 213.95 1234.29 215.99 1234.95 217.79C1235.67 219.53 1237.05 220.61 1239.09 221.03C1239.63 221.15 1240.05 221.33 1240.35 221.57C1240.71 221.81 1240.89 222.32 1240.89 223.1C1240.89 223.76 1240.71 224.6 1240.35 225.62C1240.05 226.64 1239.42 227.57 1238.46 228.41C1237.56 229.19 1236.24 229.58 1234.5 229.58C1232.16 229.58 1230.36 228.74 1229.1 227.06C1227.84 225.32 1227.21 222.86 1227.21 219.68C1225.59 222.62 1223.52 225.02 1221 226.88C1218.54 228.74 1215.63 229.67 1212.27 229.67ZM1215.15 220.31C1217.55 220.31 1219.65 219.56 1221.45 218.06C1223.31 216.56 1224.75 214.67 1225.77 212.39C1226.43 210.95 1226.94 209.39 1227.3 207.71C1227.66 205.97 1227.9 204.26 1228.02 202.58C1227 202.1 1225.83 201.71 1224.51 201.41C1223.19 201.11 1221.81 200.96 1220.37 200.96C1216.71 200.96 1213.68 202.04 1211.28 204.2C1208.94 206.36 1207.77 209.06 1207.77 212.3C1207.77 214.7 1208.43 216.65 1209.75 218.15C1211.07 219.59 1212.87 220.31 1215.15 220.31ZM1254.92 229.4C1253.18 229.4 1251.89 228.92 1251.05 227.96C1250.21 227 1249.79 225.32 1249.79 222.92C1249.79 221.78 1249.88 220.31 1250.06 218.51C1250.24 216.71 1250.45 214.76 1250.69 212.66C1251.05 210.08 1251.35 207.38 1251.59 204.56C1251.89 201.74 1252.04 199.04 1252.04 196.46C1252.04 192.8 1251.86 189.02 1251.5 185.12C1251.2 181.16 1250.3 177.71 1248.8 174.77C1248.26 173.57 1247.99 172.7 1247.99 172.16C1247.99 171.38 1248.32 170.63 1248.98 169.91C1249.7 169.19 1250.57 168.59 1251.59 168.11C1252.61 167.57 1253.6 167.3 1254.56 167.3C1256.12 167.3 1257.29 168.02 1258.07 169.46C1258.85 170.84 1259.36 172.76 1259.6 175.22C1259.84 177.62 1259.96 180.38 1259.96 183.5C1259.96 188.24 1259.75 192.35 1259.33 195.83C1258.97 199.31 1258.61 202.37 1258.25 205.01C1258.01 206.75 1257.77 208.4 1257.53 209.96C1257.35 211.52 1257.26 212.93 1257.26 214.19C1257.26 216.29 1257.59 217.82 1258.25 218.78C1258.97 219.68 1260.11 220.58 1261.67 221.48C1262.09 221.72 1262.39 221.96 1262.57 222.2C1262.81 222.38 1262.93 222.68 1262.93 223.1C1262.93 223.58 1262.69 224.33 1262.21 225.35C1261.73 226.37 1260.89 227.3 1259.69 228.14C1258.55 228.98 1256.96 229.4 1254.92 229.4Z" fill="#707478"/>
</svg>
